HIERARCHY
ROOT Hips
{
	OFFSET 0.00000 0.00000 0.00000
	CHANNELS 6 Xposition Yposition Zposition Zrotation Yrotation Xrotation 
	JOINT LHipJoint
	{
		OFFSET 0 0 0
		CHANNELS 3 Zrotation Yrotation Xrotation
		JOINT LeftUpLeg
		{
			OFFSET 1.54859 -1.61379 0.86856
			CHANNELS 3 Zrotation Yrotation Xrotation
			JOINT LeftLeg
			{
				OFFSET 2.25087 -6.18423 0.00000
				CHANNELS 3 Zrotation Yrotation Xrotation
				JOINT LeftFoot
				{
					OFFSET 2.40328 -6.60297 0.00000
					CHANNELS 3 Zrotation Yrotation Xrotation
					JOINT LeftToeBase
					{
						OFFSET 0.17435 -0.47901 2.02453
						CHANNELS 3 Zrotation Yrotation Xrotation
						End Site
						{
							OFFSET 0.00000 -0.00000 1.04844
						}
					}
				}
			}
		}
	}
	JOINT RHipJoint
	{
		OFFSET 0 0 0
		CHANNELS 3 Zrotation Yrotation Xrotation
		JOINT RightUpLeg
		{
			OFFSET -1.54669 -1.61379 0.86856
			CHANNELS 3 Zrotation Yrotation Xrotation
			JOINT RightLeg
			{
				OFFSET -2.28132 -6.26789 0.00000
				CHANNELS 3 Zrotation Yrotation Xrotation
				JOINT RightFoot
				{
					OFFSET -2.51636 -6.91365 0.00000
					CHANNELS 3 Zrotation Yrotation Xrotation
					JOINT RightToeBase
					{
						OFFSET -0.15124 -0.41552 2.21090
						CHANNELS 3 Zrotation Yrotation Xrotation
						End Site
						{
							OFFSET -0.00000 -0.00000 1.13399
						}
					}
				}
			}
		}
	}
	JOINT LowerBack
	{
		OFFSET 0 0 0
		CHANNELS 3 Zrotation Yrotation Xrotation
		JOINT Spine
		{
			OFFSET -0.04287 2.26161 -0.25690
			CHANNELS 3 Zrotation Yrotation Xrotation
			JOINT Spine1
			{
				OFFSET 0.02248 2.28395 -0.10140
				CHANNELS 3 Zrotation Yrotation Xrotation
				JOINT Neck
				{
					OFFSET 0 0 0
					CHANNELS 3 Zrotation Yrotation Xrotation
					JOINT Neck1
					{
						OFFSET -0.11644 1.38496 0.11345
						CHANNELS 3 Zrotation Yrotation Xrotation
						JOINT Head
						{
							OFFSET 0.29383 1.36600 0.06642
							CHANNELS 3 Zrotation Yrotation Xrotation
							End Site
							{
								OFFSET 0.11075 1.41395 -0.00294
							}
						}
					}
				}
				JOINT LeftShoulder
				{
					OFFSET 0 0 0
					CHANNELS 3 Zrotation Yrotation Xrotation
					JOINT LeftArm
					{
						OFFSET 3.51628 0.59542 -0.30346
						CHANNELS 3 Zrotation Yrotation Xrotation
						JOINT LeftForeArm
						{
							OFFSET 4.76405 -0.00000 0.00000
							CHANNELS 3 Zrotation Yrotation Xrotation
							JOINT LeftHand
							{
								OFFSET 3.13759 -0.00000 -0.00000
								CHANNELS 3 Zrotation Yrotation Xrotation
								JOINT LeftFingerBase
								{
									OFFSET 0 0 0
									CHANNELS 3 Zrotation Yrotation Xrotation
									JOINT LeftHandIndex1
									{
										OFFSET 0.73226 -0.00000 -0.00000
										CHANNELS 3 Zrotation Yrotation Xrotation
										End Site
										{
											OFFSET 0.59037 -0.00000 -0.00000
										}
									}
								}
								JOINT LThumb
								{
									OFFSET 0 0 0
									CHANNELS 3 Zrotation Yrotation Xrotation
									End Site
									{
										OFFSET 0.59938 -0.00000 0.59938
									}
								}
							}
						}
					}
				}
				JOINT RightShoulder
				{
					OFFSET 0 0 0
					CHANNELS 3 Zrotation Yrotation Xrotation
					JOINT RightArm
					{
						OFFSET -3.30990 0.84213 -0.36430
						CHANNELS 3 Zrotation Yrotation Xrotation
						JOINT RightForeArm
						{
							OFFSET -5.10161 -0.00000 -0.00000
							CHANNELS 3 Zrotation Yrotation Xrotation
							JOINT RightHand
							{
								OFFSET -3.23267 -0.00000 -0.00000
								CHANNELS 3 Zrotation Yrotation Xrotation
								JOINT RightFingerBase
								{
									OFFSET 0 0 0
									CHANNELS 3 Zrotation Yrotation Xrotation
									JOINT RightHandIndex1
									{
										OFFSET -0.70200 -0.00000 -0.00000
										CHANNELS 3 Zrotation Yrotation Xrotation
										End Site
										{
											OFFSET -0.56597 -0.00000 -0.00000
										}
									}
								}
								JOINT RThumb
								{
									OFFSET 0 0 0
									CHANNELS 3 Zrotation Yrotation Xrotation
									End Site
									{
										OFFSET -0.57461 -0.00000 0.57461
									}
								}
							}
						}
					}
				}
			}
		}
	}
}
MOTION
Frames: 9
Frame Time: .0083333
-24.8489 14.3787 -3.3346 4.1156 11.1115 17.2346 0.0000 0.0000 0.0000 -8.2799 6.0161 -53.4498 21.0270 19.9747 93.0040 0.4243 -2.5554 -11.6891 2.2511 -9.3705 -26.9614 0.0000 0.0000 0.0000 21.4709 -2.2770 -15.2305 -8.1637 -16.2384 53.1503 -2.2509 15.6593 -27.5354 -0.4242 4.1803 -11.5845 -6.1304 3.6911 22.0842 -2.6467 3.5613 10.1876 -0.1756 1.6832 -1.3331 -14.7790 -3.8548 -10.1406 17.4619 -1.6754 -20.5198 8.1854 -0.4411 -3.9537 0.0000 -0.0000 0.0000 -66.1852 -29.4894 1.8593 23.4015 -34.5250 -7.3646 -0.0000 0.0000 -13.5827 13.1057 29.8019 6.6003 -7.1250 0.0000 -0.0000 -20.5215 59.2453 -7.3327 0.0000 -0.0000 0.0000 85.7615 21.5847 32.9560 -31.8679 42.4416 -12.6516 0.0000 -0.0000 -27.3621 -18.6597 21.7121 -7.1210 7.1250 -0.0000 -0.0000 6.3698 -7.3001 5.5440
-24.7501 14.4366 -2.9183 4.0496 11.0992 17.7951 0.0000 0.0000 0.0000 -7.7201 4.1948 -56.0317 20.0623 19.9999 90.1823 0.4363 -3.3958 -11.7760 1.9706 -8.8047 -25.1862 0.0000 0.0000 0.0000 21.1734 -3.6792 -13.1605 -7.2533 -15.5416 49.8261 -1.7222 17.1602 -24.7817 -0.3675 3.8940 -10.7787 -5.4768 3.9267 21.5195 -3.1255 3.9979 9.8590 -1.1312 1.9342 -1.3607 -15.2530 -4.3177 -9.0833 18.0471 -2.4309 -20.0407 8.4465 -0.8619 -3.8158 -0.0000 -0.0000 0.0000 -66.1525 -27.4869 2.2766 25.7205 -36.9313 -8.7191 -0.0000 0.0000 -17.6005 10.9064 31.1349 5.6896 -7.1250 0.0000 -0.0000 -23.8588 59.9637 -9.0194 -0.0000 -0.0000 0.0000 86.0458 20.0740 33.5056 -32.3633 42.8349 -12.9872 0.0000 -0.0000 -26.7680 -18.7282 21.8528 -7.1924 7.1250 -0.0000 -0.0000 6.3364 -7.1454 5.5339
-24.6520 14.4544 -2.5117 4.0946 11.1585 18.1798 0.0000 0.0000 0.0000 -6.9730 2.1239 -58.2827 19.0108 19.9765 87.1067 0.4163 -4.1755 -11.4751 1.6054 -7.9907 -22.6857 0.0000 0.0000 0.0000 20.8476 -5.2364 -10.3561 -6.2565 -14.6723 46.0025 -1.4773 16.7733 -23.1654 -0.6050 4.9787 -13.8479 -5.2062 4.0939 21.1484 -3.5471 4.2628 9.5755 -1.7789 2.0866 -1.4395 -15.1186 -4.6766 -8.5790 18.0709 -3.1300 -19.0549 8.3734 -1.2510 -3.4820 0.0000 -0.0000 0.0000 -66.1594 -25.3312 1.9101 28.1055 -39.2132 -10.1903 -0.0000 0.0000 -21.8958 8.9638 31.7117 4.7398 -7.1250 0.0000 -0.0000 -26.3525 60.0275 -10.0798 0.0000 -0.0000 0.0000 86.7440 18.5861 33.3170 -32.6981 43.0967 -13.2153 0.0000 -0.0000 -24.2282 -18.8517 22.0201 -7.2950 7.1250 -0.0000 -0.0000 6.2706 -6.9551 5.4990
-24.5713 14.5239 -2.0611 4.0815 11.1815 18.4360 0.0000 0.0000 0.0000 -6.2391 0.3015 -59.5578 17.6569 19.8679 83.1347 0.3961 -4.9725 -11.2255 1.3673 -7.4005 -20.9075 0.0000 0.0000 0.0000 20.5510 -6.2636 -7.7074 -5.4150 -13.8365 42.5863 -0.7816 18.5677 -19.1952 -0.1949 2.8430 -7.8420 -5.4334 4.3115 20.7827 -3.6572 4.5117 9.3307 -1.8106 2.2070 -1.5296 -14.8167 -4.8808 -8.3597 17.7521 -3.6300 -17.9398 8.1508 -1.5229 -3.1239 0.0000 -0.0000 0.0000 -66.8795 -22.6857 1.0830 30.8347 -41.5982 -11.9599 -0.0000 0.0000 -26.1360 6.9404 33.0439 3.7975 -7.1250 0.0000 -0.0000 -29.6438 60.7096 -11.9553 0.0000 -0.0000 0.0000 87.2336 17.0138 32.5672 -32.9745 43.3105 -13.4046 0.0000 -0.0000 -20.1342 -19.0113 22.1408 -7.3987 7.1250 -0.0000 -0.0000 6.1789 -6.8074 5.4354
-24.4897 14.5786 -1.6011 4.1821 11.0351 18.8650 0.0000 0.0000 0.0000 -5.5356 -1.7004 -60.6071 16.2049 19.6511 78.8416 0.3514 -5.6900 -10.6776 1.2416 -7.0655 -19.9097 0.0000 0.0000 0.0000 20.1091 -6.8895 -5.0398 -4.6130 -12.9343 39.1229 -0.1703 19.2142 -14.9442 -0.1535 2.5242 -6.9567 -5.8698 4.6507 20.1268 -3.8638 4.9066 9.1111 -1.8370 2.3948 -1.4519 -15.3658 -5.4036 -8.2179 18.4033 -4.4088 -16.8573 8.3969 -1.9143 -2.6489 0.0000 -0.0000 0.0000 -67.6313 -20.1922 0.2497 33.8549 -43.9769 -14.0122 -0.0000 0.0000 -30.3584 7.9474 33.7508 4.4351 -7.1250 0.0000 -0.0000 -29.3158 61.5602 -12.4049 0.0000 -0.0000 0.0000 87.7158 15.3579 31.8226 -33.4910 43.7041 -13.7602 0.0000 -0.0000 -17.0056 -19.2601 22.1906 -7.5179 7.1250 -0.0000 -0.0000 6.0261 -6.7192 5.3098
-24.4035 14.6041 -1.1496 4.2624 11.0184 19.3445 0.0000 0.0000 0.0000 -4.5548 -4.1175 -61.6267 14.7178 19.3175 74.3852 0.2795 -6.0747 -9.6989 1.3599 -7.3813 -20.8502 0.0000 0.0000 0.0000 19.7745 -7.3478 -2.3803 -3.9002 -12.0264 35.8255 0.2185 18.8676 -11.2569 -0.2406 3.1567 -8.7152 -6.1118 4.9134 19.4782 -4.1828 5.2400 8.8746 -2.0735 2.5612 -1.3696 -15.4717 -5.9100 -7.9561 18.8365 -5.2044 -16.0336 8.4971 -2.3371 -2.2852 0.0000 -0.0000 0.0000 -68.1689 -17.6219 -0.9841 37.3209 -46.4000 -16.4720 -0.0000 0.0000 -34.1446 9.4520 32.8381 5.1585 -7.1250 0.0000 -0.0000 -26.8755 61.1364 -11.0123 0.0000 -0.0000 0.0000 88.3142 13.5449 31.2348 -34.2772 44.2890 -14.3062 0.0000 -0.0000 -14.9295 -19.3813 22.2302 -7.5811 7.1250 -0.0000 -0.0000 5.9530 -6.6602 5.2515
-24.3175 14.6087 -0.7027 4.2059 11.2019 19.7043 0.0000 0.0000 0.0000 -3.2916 -6.5601 -62.5110 13.2512 18.8710 69.9040 0.2056 -6.2438 -8.5759 1.9013 -8.6574 -24.7294 0.0000 0.0000 0.0000 19.7254 -7.7077 0.5706 -3.2019 -11.0150 32.3304 0.4790 18.0656 -7.6905 -0.3552 3.8288 -10.5954 -6.6027 5.1138 18.9453 -4.1489 5.4513 8.6182 -1.7804 2.6532 -1.4204 -15.9388 -6.2493 -7.3199 19.4972 -5.7411 -15.6311 8.7746 -2.6359 -2.1220 -0.0000 -0.0000 0.0000 -69.3219 -14.8028 -3.0513 40.9067 -48.5980 -19.1165 -0.0000 0.0000 -36.6315 7.7019 32.9143 4.2029 -7.1250 0.0000 -0.0000 -28.7451 60.7806 -11.6054 -0.0000 -0.0000 0.0000 88.1765 11.4900 31.5286 -35.1884 44.9462 -14.9463 0.0000 -0.0000 -14.4287 -19.4640 22.2691 -7.6281 7.1250 -0.0000 -0.0000 5.9040 -6.6076 5.2138
-24.2323 14.6056 -0.2587 4.2454 11.5556 19.8485 0.0000 0.0000 0.0000 -2.0545 -8.9309 -63.0694 11.8289 18.3174 65.4455 0.1104 -6.5554 -7.0009 2.5192 -9.8727 -28.5656 0.0000 0.0000 0.0000 19.7377 -7.8494 3.9741 -2.5199 -9.8740 28.5696 0.6561 16.8139 -3.4915 -0.3664 3.8881 -10.7622 -6.7171 5.3654 18.6987 -4.2404 5.7760 8.5244 -1.8657 2.8144 -1.4001 -16.5725 -6.7975 -6.4310 20.5627 -6.5218 -15.6794 9.2306 -3.0781 -2.0457 -0.0000 0.0000 0.0000 -70.3534 -12.4930 -4.6486 44.2067 -50.3739 -21.6260 -0.0000 0.0000 -37.9136 5.4490 33.3794 3.0042 -7.1250 0.0000 -0.0000 -31.4765 60.6378 -12.7257 -0.0000 0.0000 0.0000 88.1933 9.4842 31.3053 -36.1131 45.5908 -15.6032 0.0000 -0.0000 -14.4708 -19.4956 22.2740 -7.6429 7.1250 -0.0000 -0.0000 5.8846 -6.5978 5.1976
-24.1249 14.5928 0.2084 4.1792 11.7795 19.9850 0.0000 0.0000 0.0000 -0.7845 -10.9800 -63.5969 10.5419 17.7035 61.2846 -0.0014 -7.1501 -4.9781 2.8512 -10.4501 -30.4471 0.0000 0.0000 0.0000 19.7515 -7.5361 7.7036 -1.8762 -8.6033 24.5622 0.6689 14.9517 0.8885 -0.2219 3.0322 -8.3684 -6.4008 5.5812 18.1371 -4.5802 6.1600 8.4954 -2.4244 3.0194 -1.0809 -16.6941 -7.3969 -5.7720 21.3718 -7.4077 -15.5633 9.4865 -3.5823 -1.8893 -0.0000 -0.0000 0.0000 -70.9291 -10.2299 -5.7897 47.4158 -51.8985 -24.1252 -0.0000 0.0000 -39.1245 3.2535 33.6043 1.8020 -7.1250 0.0000 -0.0000 -33.8850 60.3029 -13.5569 -0.0000 -0.0000 0.0000 88.4913 7.4955 31.3828 -37.0284 46.2074 -16.2605 0.0000 -0.0000 -15.4095 -19.5092 22.2796 -7.6504 7.1250 -0.0000 -0.0000 5.8764 -6.5899 5.1912
